# Exported from USD: /armvision/Geometry/world/base_link/base_plate/rgb_camera/pi_camera
mtllib pi_camera.mtl

g pi_camera
v 0.00000000 0.87499988 2.70000005
v 1.29999971 0.00000000 2.70000005
v 0.00000000 0.00000000 2.70000005
v 0.00000000 0.00000000 3.70000005
v 0.52499956 0.00000000 3.70000005
v 2.10000014 0.74999964 2.70000005
v 3.47500014 0.00000000 2.70000005
v 1.91766953 0.76595229 2.70000005
v 1.74087846 0.81332308 2.70000005
v 1.29999971 0.87499988 2.70000005
v 1.60861206 0.87499988 2.70000005
v 3.52500010 0.00000000 3.70000005
v 2.28233075 0.76595229 2.70000005
v 2.45912099 0.81332308 2.70000005
v 3.47500014 0.87499988 2.70000005
v 21.87500000 0.00000000 2.70000005
v 7.65000010 0.00000000 3.70000005
v 22.60861206 0.87499988 2.70000005
v 22.74087906 0.81332308 2.70000005
v 22.91766930 0.76595229 2.70000005
v 23.89999962 0.00000000 2.70000005
v 21.87500000 0.87499988 2.70000005
v 25.20000076 0.00000000 3.70000005
v 19.52499962 0.00000000 3.70000005
v 23.10000038 0.74999964 2.70000005
v 23.28232956 0.76595229 2.70000005
v 23.45912170 0.81332308 2.70000005
v 23.89999962 0.87499988 2.70000005
v 25.20000076 0.00000000 2.70000005
v 25.20000076 0.87499988 2.70000005
v 25.20000076 0.77500010 3.70000005
v 0.00000000 0.77500010 3.70000005
v 2.10000014 0.74999964 3.70000005
v 1.91766953 0.76595229 3.70000005
v 1.88390160 0.77500010 3.70000005
v 0.52499956 0.77500010 3.70000005
v 2.31609869 0.77500010 3.70000005
v 2.28233075 0.76595229 3.70000005
v 3.52500010 0.77500010 3.70000005
v 7.65000010 0.77500010 3.70000005
v 23.10000038 0.74999964 3.70000005
v 22.91766930 0.76595229 3.70000005
v 22.88390160 0.77500010 3.70000005
v 19.52499962 0.77500010 3.70000005
v 23.31609917 0.77500010 3.70000005
v 23.28232956 0.76595229 3.70000005
v 0.00000000 1.74999976 3.70000005
v 1.57499969 0.89067316 3.70000005
v 1.42507350 0.99565369 3.70000005
v 1.29565322 1.12507308 3.70000005
v 1.19067359 1.27500021 3.70000005
v 1.11332262 1.44087899 3.70000005
v 0.52499956 1.74999976 3.70000005
v 1.74087846 0.81332308 3.70000005
v 2.45912099 0.81332308 3.70000005
v 2.90434718 1.12507308 3.70000005
v 2.77492690 0.99565369 3.70000005
v 3.13404846 1.61766911 3.70000005
v 3.08667684 1.44087899 3.70000005
v 3.00932670 1.27500021 3.70000005
v 2.62499976 0.89067316 3.70000005
v 3.52500010 1.74999976 3.70000005
v 16.60000038 0.80000049 3.70000005
v 8.59999943 0.80000049 3.70000005
v 7.65000010 1.74999976 3.70000005
v 16.60000038 1.74999976 3.70000005
v 19.52499962 1.74999976 3.70000005
v 22.29565239 1.12507308 3.70000005
v 22.19067383 1.27500021 3.70000005
v 22.11332321 1.44087899 3.70000005
v 22.06595230 1.61766911 3.70000005
v 22.74087906 0.81332308 3.70000005
v 22.57500076 0.89067316 3.70000005
v 22.42507362 0.99565369 3.70000005
v 23.45912170 0.81332308 3.70000005
v 25.20000076 1.74999976 3.70000005
v 24.13404846 1.61766911 3.70000005
v 24.08667755 1.44087899 3.70000005
v 24.00932693 1.27500021 3.70000005
v 23.90434647 1.12507308 3.70000005
v 23.77492714 0.99565369 3.70000005
v 23.62500000 0.89067316 3.70000005
v 8.59999943 1.74999976 3.70000005
v 8.59999943 0.80000049 4.90000010
v 16.60000038 0.80000049 4.90000010
v 8.59999943 5.79999971 4.90000010
v 8.59999943 5.79999971 3.70000005
v 16.60000038 5.79999971 4.90000010
v 15.60000038 5.79999971 4.90000010
v 9.60000038 5.79999971 4.90000010
v 2.59138823 0.87499988 2.70000005
v 23.59138870 0.87499988 2.70000005
v 1.05000007 1.79999971 2.70000005
v 1.06595182 1.61766911 2.70000005
v 1.11332262 1.44087899 2.70000005
v 1.19067359 1.27500021 2.70000005
v 0.00000000 7.92500019 2.70000005
v 1.11332262 2.15912151 2.70000005
v 1.06595182 1.98233032 2.70000005
v 1.29565322 1.12507308 2.70000005
v 1.29999971 1.12072659 2.70000005
v 1.42507350 0.99565369 2.70000005
v 1.57499969 0.89067316 2.70000005
v 2.62499976 0.89067316 2.70000005
v 2.77492690 0.99565369 2.70000005
v 2.90434718 1.12507308 2.70000005
v 3.00932670 1.27500021 2.70000005
v 3.08667684 1.44087899 2.70000005
v 3.13404846 1.61766911 2.70000005
v 3.15000033 1.79999971 2.70000005
v 3.13404846 1.98233032 2.70000005
v 3.47500014 7.92500019 2.70000005
v 3.79999995 7.92500019 2.70000005
v 3.79999995 1.00000012 2.70000005
v 22.11332321 1.44087899 2.70000005
v 22.19067383 1.27500021 2.70000005
v 22.29565239 1.12507308 2.70000005
v 22.42507362 0.99565369 2.70000005
v 22.57500076 0.89067316 2.70000005
v 21.87500000 7.92500019 2.70000005
v 22.04999924 1.79999971 2.70000005
v 22.06595230 1.61766911 2.70000005
v 21.70000076 1.00000012 2.70000005
v 23.62500000 0.89067316 2.70000005
v 23.89999962 1.12072659 2.70000005
v 23.77492714 0.99565369 2.70000005
v 23.90434647 1.12507308 2.70000005
v 24.00932693 1.27500021 2.70000005
v 24.08667755 1.44087899 2.70000005
v 24.13404846 1.61766911 2.70000005
v 24.14999962 1.79999971 2.70000005
v 24.13404846 1.98233032 2.70000005
v 25.20000076 7.92500019 2.70000005
v 25.20000076 8.92500019 3.70000005
v 21.70000076 1.00000012 1.39999998
v 3.79999995 1.00000012 1.39999998
v 3.79999995 13.00000000 1.39999998
v 21.70000076 7.92500019 2.70000005
v 21.70000076 13.00000000 1.39999998
v 1.06595182 1.61766911 3.70000005
v 1.05437446 1.74999976 3.70000005
v 3.14562583 1.74999976 3.70000005
v 22.05437469 1.74999976 3.70000005
v 24.14562607 1.74999976 3.70000005
v 0.00000000 8.92500019 3.70000005
v 1.05000007 1.79999971 3.70000005
v 1.11332262 2.15912151 3.70000005
v 0.52499956 8.92500019 3.70000005
v 1.06595182 1.98233032 3.70000005
v 3.15000033 1.79999971 3.70000005
v 3.00932670 2.32500029 3.70000005
v 3.08667684 2.15912151 3.70000005
v 3.13404846 1.98233032 3.70000005
v 3.52500010 8.92500019 3.70000005
v 3.89999986 4.80000019 3.70000005
v 7.09999990 2.70000005 3.70000005
v 3.89999986 2.70000005 3.70000005
v 7.65000010 8.92500019 3.70000005
v 7.09999990 4.80000019 3.70000005
v 16.60000038 5.79999971 3.70000005
v 19.52499962 8.92500019 3.70000005
v 22.11332321 2.15912151 3.70000005
v 22.06595230 1.98233032 3.70000005
v 22.04999924 1.79999971 3.70000005
v 24.14999962 1.79999971 3.70000005
v 24.13404846 1.98233032 3.70000005
v 24.00932693 2.32500029 3.70000005
v 24.08667755 2.15912151 3.70000005
v 22.06595230 1.98233032 2.70000005
v 3.08667684 2.15912151 2.70000005
v 22.11332321 2.15912151 2.70000005
v 24.08667755 2.15912151 2.70000005
v 1.19067359 2.32500029 2.70000005
v 1.19067359 2.32500029 3.70000005
v 3.00932670 2.32500029 2.70000005
v 22.19067383 2.32500029 2.70000005
v 22.19067383 2.32500029 3.70000005
v 24.00932693 2.32500029 2.70000005
v 1.29565322 2.47492743 2.70000005
v 1.29565322 2.47492743 3.70000005
v 2.90434718 2.47492743 2.70000005
v 22.29565239 2.47492743 2.70000005
v 22.29565239 2.47492743 3.70000005
v 23.90434647 2.47492743 2.70000005
v 2.90434718 2.47492743 3.70000005
v 23.90434647 2.47492743 3.70000005
v 1.29999971 2.47927380 2.70000005
v 2.77492690 2.60434675 2.70000005
v 22.42507362 2.60434675 2.70000005
v 22.42507362 2.60434675 3.70000005
v 23.89999962 7.92500019 2.70000005
v 23.89999962 2.47927380 2.70000005
v 1.42507350 2.60434675 3.70000005
v 2.77492690 2.60434675 3.70000005
v 23.77492714 2.60434675 3.70000005
v 1.29999971 7.92500019 2.70000005
v 1.42507350 2.60434675 2.70000005
v 23.77492714 2.60434675 2.70000005
v 1.57499969 2.70932627 2.70000005
v 1.57499969 2.70932627 3.70000005
v 2.62499976 2.70932627 2.70000005
v 22.57500076 2.70932627 2.70000005
v 22.57500076 2.70932627 3.70000005
v 23.62500000 2.70932627 2.70000005
v 2.62499976 2.70932627 3.70000005
v 23.62500000 2.70932627 3.70000005
v 3.89999986 2.70000005 4.50000000
v 3.89999986 4.80000019 4.50000000
v 7.09999990 2.70000005 4.50000000
v 7.09999990 4.80000019 4.50000000
v 1.74087846 2.78667736 2.70000005
v 1.74087846 2.78667736 3.70000005
v 2.45912099 2.78667736 2.70000005
v 22.74087906 2.78667736 2.70000005
v 22.74087906 2.78667736 3.70000005
v 23.45912170 2.78667736 2.70000005
v 2.45912099 2.78667736 3.70000005
v 23.45912170 2.78667736 3.70000005
v 1.91766953 2.83404803 2.70000005
v 1.91766953 2.83404803 3.70000005
v 2.28233075 2.83404803 2.70000005
v 22.91766930 2.83404803 2.70000005
v 22.91766930 2.83404803 3.70000005
v 23.28232956 2.83404803 2.70000005
v 2.28233075 2.83404803 3.70000005
v 23.28232956 2.83404803 3.70000005
v 2.10000014 2.84999990 2.70000005
v 2.10000014 2.84999990 3.70000005
v 23.10000038 2.84999990 2.70000005
v 23.10000038 2.84999990 3.70000005
v 9.60000038 8.92500019 3.70000005
v 9.60000038 5.79999971 3.70000005
v 15.60000038 5.79999971 3.70000005
v 15.60000038 8.92500019 3.70000005
v 9.60000038 9.30000019 4.90000010
v 15.60000038 9.30000019 4.90000010
v 0.00000000 13.02500057 2.70000005
v 1.29999971 13.02500057 2.70000005
v 3.47500014 13.02500057 2.70000005
v 3.79999995 13.00000000 2.70000005
v 21.87500000 13.02500057 2.70000005
v 21.70000076 13.00000000 2.70000005
v 23.89999962 13.02500057 2.70000005
v 25.20000076 13.02500057 2.70000005
v 0.00000000 16.62500000 3.70000005
v 1.74087846 13.11332321 3.70000005
v 1.57499969 13.19067383 3.70000005
v 1.42507350 13.29565334 3.70000005
v 1.29565322 13.42507267 3.70000005
v 1.19067359 13.57499981 3.70000005
v 1.11332262 13.74087906 3.70000005
v 2.10000014 13.05000019 3.70000005
v 1.91766953 13.06595230 3.70000005
v 1.06595182 13.91766930 3.70000005
v 1.05000007 14.10000038 3.70000005
v 0.52499956 16.62500000 3.70000005
v 3.52500010 16.62500000 3.70000005
v 3.15000033 14.10000038 3.70000005
v 3.13404846 13.91766930 3.70000005
v 3.08667684 13.74087906 3.70000005
v 3.00932670 13.57499981 3.70000005
v 2.90434718 13.42507267 3.70000005
v 2.77492690 13.29565334 3.70000005
v 2.62499976 13.19067383 3.70000005
v 2.45912099 13.11332321 3.70000005
v 2.28233075 13.06595230 3.70000005
v 9.60000038 9.30000019 3.70000005
v 8.19999981 9.30000019 3.70000005
v 7.65000010 16.62500000 3.70000005
v 17.00000000 9.30000019 3.70000005
v 15.60000038 9.30000019 3.70000005
v 17.00000000 16.62500000 3.70000005
v 19.52499962 16.62500000 3.70000005
v 22.74087906 13.11332321 3.70000005
v 22.57500076 13.19067383 3.70000005
v 22.42507362 13.29565334 3.70000005
v 22.29565239 13.42507267 3.70000005
v 22.19067383 13.57499981 3.70000005
v 23.10000038 13.05000019 3.70000005
v 22.91766930 13.06595230 3.70000005
v 22.11332321 13.74087906 3.70000005
v 22.06595230 13.91766930 3.70000005
v 25.20000076 16.62500000 3.70000005
v 24.13404846 13.91766930 3.70000005
v 24.08667755 13.74087906 3.70000005
v 24.00932693 13.57499981 3.70000005
v 23.90434647 13.42507267 3.70000005
v 23.77492714 13.29565334 3.70000005
v 23.62500000 13.19067383 3.70000005
v 23.45912170 13.11332321 3.70000005
v 23.28232956 13.06595230 3.70000005
v 8.19999981 16.62500000 3.70000005
v 8.19999981 9.30000019 6.90000010
v 17.00000000 9.30000019 6.90000010
v 8.19999981 18.10000038 6.90000010
v 9.10000038 13.69999981 6.90000010
v 9.15317249 13.09223175 6.90000010
v 12.60000038 10.19999981 6.90000010
v 11.99223137 10.25317287 6.90000010
v 11.40292931 10.41107559 6.90000010
v 10.85000038 10.66891098 6.90000010
v 10.35024357 11.01884460 6.90000010
v 9.91884422 11.45024395 6.90000010
v 9.56891060 11.94999981 6.90000010
v 9.31107616 12.50292969 6.90000010
v 17.00000000 18.10000038 6.90000010
v 15.88892460 12.50292969 6.90000010
v 15.63108921 11.94999981 6.90000010
v 15.28115559 11.45024395 6.90000010
v 14.84975624 11.01884460 6.90000010
v 14.35000038 10.66891098 6.90000010
v 13.79707050 10.41107559 6.90000010
v 13.20776844 10.25317287 6.90000010
v 16.10000038 13.69999981 6.90000010
v 16.04682732 13.09223175 6.90000010
v 12.60000038 10.19999981 8.69999981
v 11.99223137 10.25317287 8.69999981
v 13.20776844 10.25317287 8.69999981
v 12.60000038 13.05000019 8.69999981
v 12.71287155 13.05987549 8.69999981
v 11.40292931 10.41107559 8.69999981
v 12.48712826 13.05987549 8.69999981
v 13.79707050 10.41107559 8.69999981
v 12.82231331 13.08920002 8.69999981
v 10.85000038 10.66891098 8.69999981
v 12.37768650 13.08920002 8.69999981
v 14.35000038 10.66891098 8.69999981
v 12.92500019 13.13708401 8.69999981
v 10.35024357 11.01884460 8.69999981
v 12.27499962 13.13708401 8.69999981
v 14.84975624 11.01884460 8.69999981
v 13.01781178 13.20207119 8.69999981
v 9.91884422 11.45024395 8.69999981
v 12.18218803 13.20207119 8.69999981
v 15.28115559 11.45024395 8.69999981
v 13.09792900 13.28218842 8.69999981
v 9.56891060 11.94999981 8.69999981
v 12.10207081 13.28218842 8.69999981
v 15.63108921 11.94999981 8.69999981
v 13.16291618 13.37500000 8.69999981
v 9.31107616 12.50292969 8.69999981
v 12.03708363 13.37500000 8.69999981
v 15.88892460 12.50292969 8.69999981
v 13.21080017 13.47768688 8.69999981
v 9.15317249 13.09223175 8.69999981
v 11.98919964 13.47768688 8.69999981
v 16.04682732 13.09223175 8.69999981
v 13.24012470 13.58712864 8.69999981
v 1.06595182 13.91766930 2.70000005
v 1.11332262 13.74087906 2.70000005
v 1.19067359 13.57499981 2.70000005
v 1.29565322 13.42507267 2.70000005
v 0.00000000 16.37500000 2.70000005
v 1.06595182 14.28233051 2.70000005
v 1.05000007 14.10000038 2.70000005
v 1.29999971 13.42072678 2.70000005
v 1.42507350 13.29565334 2.70000005
v 1.57499969 13.19067383 2.70000005
v 1.74087846 13.11332321 2.70000005
v 1.91766953 13.06595230 2.70000005
v 2.10000014 13.05000019 2.70000005
v 2.28233075 13.06595230 2.70000005
v 2.45912099 13.11332321 2.70000005
v 3.00932670 13.57499981 2.70000005
v 3.08667684 13.74087906 2.70000005
v 2.90434718 13.42507267 2.70000005
v 2.62499976 13.19067383 2.70000005
v 2.77492690 13.29565334 2.70000005
v 3.13404846 13.91766930 2.70000005
v 3.15000033 14.10000038 2.70000005
v 3.47500014 16.37500000 2.70000005
v 22.11332321 13.74087906 2.70000005
v 22.19067383 13.57499981 2.70000005
v 22.29565239 13.42507267 2.70000005
v 22.42507362 13.29565334 2.70000005
v 22.57500076 13.19067383 2.70000005
v 22.74087906 13.11332321 2.70000005
v 22.91766930 13.06595230 2.70000005
v 23.10000038 13.05000019 2.70000005
v 21.87500000 16.37500000 2.70000005
v 22.04999924 14.10000038 2.70000005
v 22.06595230 13.91766930 2.70000005
v 23.28232956 13.06595230 2.70000005
v 23.45912170 13.11332321 2.70000005
v 23.62500000 13.19067383 2.70000005
v 23.77492714 13.29565334 2.70000005
v 23.89999962 13.42072678 2.70000005
v 23.90434647 13.42507267 2.70000005
v 24.00932693 13.57499981 2.70000005
v 24.08667755 13.74087906 2.70000005
v 24.13404846 13.91766930 2.70000005
v 24.14999962 14.10000038 2.70000005
v 25.20000076 16.37500000 2.70000005
v 12.48712826 13.05987549 8.19999981
v 12.60000038 13.05000019 8.19999981
v 12.71287155 13.05987549 8.19999981
v 12.60000038 13.69999981 8.19999981
v 12.37768650 13.08920002 8.19999981
v 12.82231331 13.08920002 8.19999981
v 12.27499962 13.13708401 8.19999981
v 12.92500019 13.13708401 8.19999981
v 9.10000038 13.69999981 8.69999981
v 11.95987511 13.58712864 8.69999981
v 16.10000038 13.69999981 8.69999981
v 13.25000000 13.69999981 8.69999981
v 12.18218803 13.20207119 8.19999981
v 13.01781178 13.20207119 8.19999981
v 12.10207081 13.28218842 8.19999981
v 13.09792900 13.28218842 8.19999981
v 12.03708363 13.37500000 8.19999981
v 13.16291618 13.37500000 8.19999981
v 11.98919964 13.47768688 8.19999981
v 13.21080017 13.47768688 8.19999981
v 11.95987511 13.58712864 8.19999981
v 13.24012470 13.58712864 8.19999981
v 11.94999981 13.69999981 8.19999981
v 11.94999981 13.69999981 8.69999981
v 13.25000000 13.69999981 8.19999981
v 9.15317249 14.30776882 6.90000010
v 9.15317249 14.30776882 8.69999981
v 16.04682732 14.30776882 6.90000010
v 11.95987511 13.81287098 8.19999981
v 11.95987511 13.81287098 8.69999981
v 13.24012470 13.81287098 8.19999981
v 11.98919964 13.92231369 8.19999981
v 12.18218803 14.19792938 8.19999981
v 12.10207081 14.11781216 8.19999981
v 12.03708363 14.02500057 8.19999981
v 12.48712826 14.34012508 8.19999981
v 12.37768650 14.31080055 8.19999981
v 12.27499962 14.26291656 8.19999981
v 12.82231331 14.31080055 8.19999981
v 12.71287155 14.34012508 8.19999981
v 12.60000038 14.35000038 8.19999981
v 13.09792900 14.11781216 8.19999981
v 13.01781178 14.19792938 8.19999981
v 12.92500019 14.26291656 8.19999981
v 13.21080017 13.92231369 8.19999981
v 13.16291618 14.02500057 8.19999981
v 13.24012470 13.81287098 8.69999981
v 16.04682732 14.30776882 8.69999981
v 11.98919964 13.92231369 8.69999981
v 9.31107616 14.89707088 8.69999981
v 13.21080017 13.92231369 8.69999981
v 22.04999924 14.10000038 3.70000005
v 24.14999962 14.10000038 3.70000005
v 12.03708363 14.02500057 8.69999981
v 9.56891060 15.44999981 8.69999981
v 15.88892460 14.89707088 8.69999981
v 13.16291618 14.02500057 8.69999981
v 12.10207081 14.11781216 8.69999981
v 9.91884422 15.94975662 8.69999981
v 15.63108921 15.44999981 8.69999981
v 13.09792900 14.11781216 8.69999981
v 1.06595182 14.28233051 3.70000005
v 3.13404846 14.28233051 2.70000005
v 22.06595230 14.28233051 2.70000005
v 22.06595230 14.28233051 3.70000005
v 24.13404846 14.28233051 2.70000005
v 3.13404846 14.28233051 3.70000005
v 24.13404846 14.28233051 3.70000005
v 12.18218803 14.19792938 8.69999981
v 10.35024357 16.38115501 8.69999981
v 15.28115559 15.94975662 8.69999981
v 13.01781178 14.19792938 8.69999981
v 12.27499962 14.26291656 8.69999981
v 10.85000038 16.73108864 8.69999981
v 14.84975624 16.38115501 8.69999981
v 12.92500019 14.26291656 8.69999981
v 12.37768650 14.31080055 8.69999981
v 11.40292931 16.98892403 8.69999981
v 14.35000038 16.73108864 8.69999981
v 12.82231331 14.31080055 8.69999981
v 1.11332262 14.45912170 2.70000005
v 1.11332262 14.45912170 3.70000005
v 3.08667684 14.45912170 2.70000005
v 22.11332321 14.45912170 2.70000005
v 22.11332321 14.45912170 3.70000005
v 24.08667755 14.45912170 2.70000005
v 3.08667684 14.45912170 3.70000005
v 24.08667755 14.45912170 3.70000005
v 9.31107616 14.89707088 6.90000010
v 15.88892460 14.89707088 6.90000010
v 12.48712826 14.34012508 8.69999981
v 11.99223137 17.14682770 8.69999981
v 13.79707050 16.98892403 8.69999981
v 12.71287155 14.34012508 8.69999981
v 12.60000038 14.35000038 8.69999981
v 12.60000038 17.20000076 8.69999981
v 13.20776844 17.14682770 8.69999981
v 1.19067359 14.62500000 2.70000005
v 1.19067359 14.62500000 3.70000005
v 3.00932670 14.62500000 2.70000005
v 22.19067383 14.62500000 2.70000005
v 22.19067383 14.62500000 3.70000005
v 24.00932693 14.62500000 2.70000005
v 3.00932670 14.62500000 3.70000005
v 24.00932693 14.62500000 3.70000005
v 1.29565322 14.77492714 2.70000005
v 1.29565322 14.77492714 3.70000005
v 2.90434718 14.77492714 2.70000005
v 22.29565239 14.77492714 2.70000005
v 22.29565239 14.77492714 3.70000005
v 23.90434647 14.77492714 2.70000005
v 2.90434718 14.77492714 3.70000005
v 23.90434647 14.77492714 3.70000005
v 1.29999971 14.77927399 2.70000005
v 2.77492690 14.90434647 2.70000005
v 22.42507362 14.90434647 2.70000005
v 22.42507362 14.90434647 3.70000005
v 23.89999962 14.77927399 2.70000005
v 23.89999962 16.37500000 2.70000005
v 1.42507350 14.90434647 3.70000005
v 2.77492690 14.90434647 3.70000005
v 23.77492714 14.90434647 3.70000005
v 1.29999971 16.37500000 2.70000005
v 1.42507350 14.90434647 2.70000005
v 23.77492714 14.90434647 2.70000005
v 9.56891060 15.44999981 6.90000010
v 15.63108921 15.44999981 6.90000010
v 1.57499969 15.00932693 2.70000005
v 1.57499969 15.00932693 3.70000005
v 2.62499976 15.00932693 2.70000005
v 22.57500076 15.00932693 2.70000005
v 22.57500076 15.00932693 3.70000005
v 23.62500000 15.00932693 2.70000005
v 2.62499976 15.00932693 3.70000005
v 23.62500000 15.00932693 3.70000005
v 1.74087846 15.08667755 2.70000005
v 1.74087846 15.08667755 3.70000005
v 2.45912099 15.08667755 2.70000005
v 22.74087906 15.08667755 2.70000005
v 22.74087906 15.08667755 3.70000005
v 23.45912170 15.08667755 2.70000005
v 2.45912099 15.08667755 3.70000005
v 23.45912170 15.08667755 3.70000005
v 1.91766953 15.13404846 2.70000005
v 1.91766953 15.13404846 3.70000005
v 2.28233075 15.13404846 2.70000005
v 22.91766930 15.13404846 2.70000005
v 22.91766930 15.13404846 3.70000005
v 23.28232956 15.13404846 2.70000005
v 2.28233075 15.13404846 3.70000005
v 23.28232956 15.13404846 3.70000005
v 2.10000014 15.15000057 2.70000005
v 2.10000014 15.15000057 3.70000005
v 23.10000038 15.15000057 2.70000005
v 23.10000038 15.15000057 3.70000005
v 9.91884422 15.94975662 6.90000010
v 15.28115559 15.94975662 6.90000010
v 10.35024357 16.38115501 6.90000010
v 14.84975624 16.38115501 6.90000010
v 0.00000000 24.00000000 2.70000005
v 2.55000043 17.60000038 2.70000005
v 1.55000019 21.80000114 2.70000005
v 1.29999971 24.00000000 2.70000005
v 3.47500014 17.60000038 2.70000005
v 21.87500000 17.60000038 2.70000005
v 22.64999962 17.60000038 2.70000005
v 22.64999962 21.80000114 2.70000005
v 23.64999962 21.80000114 2.70000005
v 23.89999962 24.00000000 2.70000005
v 25.20000076 24.00000000 2.70000005
v 25.20000076 24.00000000 3.70000005
v 10.85000038 16.73108864 6.90000010
v 14.35000038 16.73108864 6.90000010
v 0.00000000 24.00000000 3.70000005
v 0.52499956 24.00000000 3.70000005
v 3.52500010 24.00000000 3.70000005
v 8.19999981 18.10000038 3.70000005
v 7.65000010 24.00000000 3.70000005
v 17.00000000 18.10000038 3.70000005
v 19.52499962 24.00000000 3.70000005
v 11.40292931 16.98892403 6.90000010
v 13.79707050 16.98892403 6.90000010
v 11.99223137 17.14682770 6.90000010
v 13.20776844 17.14682770 6.90000010
v 12.60000038 17.20000076 6.90000010
v 2.55000043 17.60000038 0.00000000
v 22.64999962 17.60000038 0.00000000
v 2.55000043 21.80000114 2.70000005
v 2.55000043 21.80000114 0.00000000
v 22.64999962 21.80000114 0.00000000
v 1.55000019 21.80000114 0.00000000
v 1.55000019 23.10000038 2.70000005
v 1.55000019 23.10000038 0.00000000
v 23.64999962 23.10000038 0.00000000
v 23.64999962 21.80000114 0.00000000
v 23.64999962 23.10000038 2.70000005
v 3.47500014 23.10000038 2.70000005
v 4.59999943 23.10000038 1.50000000
v 4.59999943 23.10000038 1.29999983
v 21.87500000 23.10000038 2.70000005
v 20.60000038 23.10000038 1.50000000
v 20.60000038 23.10000038 1.29999983
v 4.59999943 33.09999847 1.29999983
v 20.60000038 33.09999847 1.29999983
v 20.60000038 33.09999847 1.50000000
v 4.59999943 33.09999847 1.50000000
v 3.47500014 24.00000000 2.70000005
v 21.87500000 24.00000000 2.70000005
f 1 2 3
f 4 1 3
f 2 5 3
f 5 4 3
f 6 7 2
f 8 6 2
f 9 8 2
f 1 10 2
f 10 11 2
f 11 9 2
f 7 12 2
f 12 5 2
f 6 13 7
f 13 14 7
f 14 15 7
f 15 16 7
f 16 17 7
f 17 12 7
f 18 19 16
f 19 20 16
f 20 21 16
f 15 22 16
f 22 18 16
f 21 23 16
f 23 24 16
f 24 17 16
f 20 25 21
f 25 26 21
f 26 27 21
f 27 28 21
f 28 29 21
f 29 23 21
f 28 30 29
f 31 23 29
f 30 31 29
f 5 32 4
f 32 1 4
f 12 33 5
f 33 34 5
f 34 35 5
f 35 36 5
f 36 32 5
f 37 38 12
f 38 33 12
f 39 37 12
f 17 39 12
f 40 39 17
f 24 40 17
f 23 41 24
f 41 42 24
f 42 43 24
f 44 40 24
f 43 44 24
f 31 45 23
f 45 46 23
f 46 41 23
f 8 34 6
f 34 33 6
f 33 13 6
f 20 42 25
f 42 41 25
f 41 26 25
f 38 13 33
f 46 26 41
f 9 35 8
f 35 34 8
f 38 37 13
f 37 14 13
f 19 43 20
f 43 42 20
f 46 45 26
f 45 27 26
f 36 47 32
f 47 1 32
f 48 49 36
f 49 50 36
f 50 51 36
f 51 52 36
f 52 53 36
f 35 54 36
f 54 48 36
f 53 47 36
f 9 54 35
f 39 55 37
f 55 14 37
f 56 57 39
f 58 59 39
f 59 60 39
f 60 56 39
f 57 61 39
f 61 55 39
f 62 58 39
f 40 62 39
f 63 64 40
f 44 63 40
f 65 62 40
f 64 65 40
f 66 63 44
f 67 66 44
f 68 69 44
f 69 70 44
f 70 71 44
f 71 67 44
f 72 73 44
f 73 74 44
f 74 68 44
f 43 72 44
f 19 72 43
f 31 75 45
f 75 27 45
f 76 77 31
f 77 78 31
f 78 79 31
f 79 80 31
f 80 81 31
f 81 82 31
f 82 75 31
f 30 76 31
f 83 65 64
f 63 84 64
f 84 83 64
f 85 84 63
f 66 85 63
f 86 87 84
f 87 83 84
f 85 88 84
f 88 89 84
f 90 86 84
f 89 90 84
f 66 88 85
f 11 54 9
f 91 15 14
f 55 91 14
f 18 72 19
f 92 28 27
f 75 92 27
f 11 48 54
f 61 91 55
f 18 73 72
f 82 92 75
f 93 94 1
f 94 95 1
f 95 96 1
f 97 98 1
f 98 99 1
f 99 93 1
f 96 100 1
f 100 10 1
f 47 97 1
f 100 101 10
f 101 102 10
f 102 103 10
f 103 11 10
f 103 48 11
f 104 15 91
f 61 104 91
f 104 105 15
f 105 106 15
f 106 107 15
f 107 108 15
f 108 109 15
f 109 110 15
f 110 111 15
f 111 112 15
f 112 113 15
f 113 114 15
f 114 22 15
f 115 116 22
f 116 117 22
f 117 118 22
f 118 119 22
f 120 121 22
f 121 122 22
f 122 115 22
f 119 18 22
f 114 123 22
f 123 120 22
f 119 73 18
f 124 28 92
f 82 124 92
f 125 30 28
f 124 126 28
f 126 125 28
f 125 127 30
f 127 128 30
f 128 129 30
f 129 130 30
f 130 131 30
f 131 132 30
f 132 133 30
f 133 134 30
f 134 76 30
f 102 49 103
f 49 48 103
f 61 105 104
f 118 74 119
f 74 73 119
f 82 126 124
f 57 105 61
f 81 126 82
f 101 49 102
f 57 106 105
f 117 68 118
f 68 74 118
f 81 125 126
f 101 50 49
f 56 106 57
f 80 125 81
f 135 114 136
f 113 137 136
f 114 113 136
f 137 135 136
f 138 123 135
f 139 138 135
f 123 114 135
f 137 139 135
f 138 120 123
f 100 50 101
f 80 127 125
f 96 51 100
f 51 50 100
f 56 107 106
f 116 69 117
f 69 68 117
f 80 128 127
f 60 107 56
f 79 128 80
f 95 52 96
f 52 51 96
f 60 108 107
f 115 70 116
f 70 69 116
f 79 129 128
f 59 108 60
f 78 129 79
f 94 140 95
f 140 52 95
f 59 109 108
f 122 71 115
f 71 70 115
f 78 130 129
f 140 53 52
f 58 109 59
f 77 130 78
f 93 141 94
f 141 140 94
f 142 110 109
f 58 142 109
f 121 143 122
f 143 71 122
f 144 131 130
f 77 144 130
f 141 53 140
f 62 142 58
f 143 67 71
f 76 144 77
f 53 145 47
f 145 97 47
f 141 146 53
f 147 148 53
f 149 147 53
f 146 149 53
f 148 145 53
f 93 146 141
f 62 150 142
f 150 110 142
f 151 152 62
f 152 153 62
f 153 150 62
f 154 151 62
f 155 154 62
f 65 156 62
f 156 157 62
f 157 155 62
f 87 158 65
f 83 87 65
f 158 159 65
f 159 156 65
f 67 160 66
f 160 88 66
f 161 160 67
f 162 161 67
f 163 162 67
f 164 163 67
f 143 164 67
f 121 164 143
f 76 165 144
f 165 131 144
f 166 165 76
f 134 167 76
f 167 168 76
f 168 166 76
f 99 149 93
f 149 146 93
f 150 111 110
f 120 169 121
f 169 163 121
f 163 164 121
f 165 132 131
f 153 111 150
f 166 132 165
f 98 147 99
f 147 149 99
f 170 112 111
f 153 170 111
f 120 171 169
f 171 162 169
f 162 163 169
f 172 133 132
f 166 172 132
f 152 170 153
f 168 172 166
f 97 173 98
f 173 174 98
f 174 147 98
f 175 112 170
f 152 175 170
f 120 176 171
f 176 177 171
f 177 162 171
f 178 133 172
f 168 178 172
f 174 148 147
f 151 175 152
f 177 161 162
f 167 178 168
f 97 179 173
f 180 174 173
f 179 180 173
f 181 112 175
f 151 181 175
f 120 182 176
f 182 183 176
f 183 177 176
f 184 133 178
f 167 184 178
f 180 148 174
f 154 185 151
f 185 181 151
f 183 161 177
f 134 186 167
f 186 184 167
f 97 187 179
f 187 180 179
f 188 112 181
f 185 188 181
f 120 189 182
f 189 190 182
f 190 183 182
f 191 133 184
f 192 191 184
f 186 192 184
f 193 148 180
f 187 193 180
f 154 194 185
f 194 188 185
f 190 161 183
f 134 195 186
f 195 192 186
f 196 197 187
f 97 196 187
f 197 193 187
f 198 191 192
f 195 198 192
f 196 199 197
f 200 193 197
f 199 200 197
f 201 112 188
f 194 201 188
f 120 202 189
f 202 203 189
f 203 190 189
f 204 191 198
f 195 204 198
f 200 148 193
f 154 205 194
f 205 201 194
f 203 161 190
f 134 206 195
f 206 204 195
f 207 208 157
f 208 155 157
f 156 207 157
f 159 209 156
f 209 207 156
f 210 208 207
f 209 210 207
f 159 210 209
f 196 211 199
f 212 200 199
f 211 212 199
f 213 112 201
f 205 213 201
f 120 214 202
f 214 215 202
f 215 203 202
f 216 191 204
f 206 216 204
f 212 148 200
f 154 217 205
f 217 213 205
f 215 161 203
f 134 218 206
f 218 216 206
f 196 219 211
f 220 212 211
f 219 220 211
f 221 112 213
f 217 221 213
f 120 222 214
f 222 223 214
f 223 215 214
f 224 191 216
f 218 224 216
f 220 148 212
f 154 225 217
f 225 221 217
f 223 161 215
f 134 226 218
f 226 224 218
f 196 227 219
f 228 220 219
f 227 228 219
f 196 112 221
f 227 196 221
f 225 227 221
f 120 229 222
f 229 230 222
f 230 223 222
f 229 191 224
f 226 229 224
f 154 148 220
f 228 154 220
f 154 228 225
f 228 227 225
f 134 161 223
f 230 134 223
f 134 230 226
f 230 229 226
f 120 191 229
f 158 154 155
f 159 158 155
f 208 210 155
f 210 159 155
f 231 158 87
f 232 231 87
f 86 90 87
f 90 232 87
f 90 231 232
f 160 161 233
f 161 234 233
f 89 88 233
f 88 160 233
f 234 89 233
f 235 231 90
f 89 235 90
f 234 236 89
f 236 235 89
f 237 196 97
f 145 237 97
f 238 112 196
f 237 238 196
f 238 239 112
f 239 240 112
f 240 113 112
f 240 137 113
f 241 120 138
f 242 241 138
f 139 242 138
f 241 191 120
f 243 133 191
f 241 243 191
f 243 244 133
f 244 134 133
f 148 245 145
f 245 237 145
f 246 247 148
f 247 248 148
f 248 249 148
f 249 250 148
f 250 251 148
f 154 252 148
f 252 253 148
f 253 246 148
f 251 254 148
f 254 255 148
f 255 256 148
f 256 245 148
f 158 257 154
f 257 258 154
f 258 259 154
f 259 260 154
f 260 261 154
f 261 262 154
f 262 263 154
f 263 264 154
f 264 265 154
f 265 266 154
f 266 252 154
f 267 268 158
f 231 267 158
f 268 269 158
f 269 257 158
f 235 267 231
f 270 271 234
f 161 270 234
f 271 236 234
f 272 270 161
f 273 272 161
f 274 275 161
f 275 276 161
f 276 277 161
f 277 278 161
f 134 279 161
f 279 280 161
f 280 274 161
f 278 281 161
f 281 282 161
f 282 273 161
f 283 284 134
f 284 285 134
f 285 286 134
f 286 287 134
f 287 288 134
f 288 289 134
f 289 290 134
f 290 291 134
f 291 279 134
f 244 283 134
f 292 269 268
f 267 293 268
f 293 292 268
f 235 293 267
f 270 236 271
f 294 236 270
f 272 294 270
f 236 294 235
f 294 293 235
f 295 292 293
f 296 295 293
f 297 296 293
f 294 298 293
f 298 299 293
f 299 300 293
f 300 301 293
f 301 302 293
f 302 303 293
f 303 304 293
f 304 305 293
f 305 297 293
f 272 306 294
f 307 308 294
f 308 309 294
f 309 310 294
f 310 311 294
f 311 312 294
f 312 313 294
f 313 298 294
f 306 314 294
f 314 315 294
f 315 307 294
f 313 316 298
f 316 317 298
f 317 299 298
f 313 318 316
f 319 317 316
f 320 319 316
f 318 320 316
f 317 321 299
f 321 300 299
f 312 318 313
f 322 321 317
f 319 322 317
f 312 323 318
f 324 320 318
f 323 324 318
f 321 325 300
f 325 301 300
f 311 323 312
f 326 325 321
f 322 326 321
f 311 327 323
f 328 324 323
f 327 328 323
f 325 329 301
f 329 302 301
f 310 327 311
f 330 329 325
f 326 330 325
f 310 331 327
f 332 328 327
f 331 332 327
f 329 333 302
f 333 303 302
f 309 331 310
f 334 333 329
f 330 334 329
f 309 335 331
f 336 332 331
f 335 336 331
f 333 337 303
f 337 304 303
f 308 335 309
f 338 337 333
f 334 338 333
f 308 339 335
f 340 336 335
f 339 340 335
f 337 341 304
f 341 305 304
f 307 339 308
f 342 341 337
f 338 342 337
f 307 343 339
f 344 340 339
f 343 344 339
f 341 345 305
f 345 297 305
f 315 343 307
f 346 345 341
f 342 346 341
f 315 347 343
f 348 344 343
f 347 348 343
f 242 139 137
f 240 242 137
f 239 241 240
f 241 242 240
f 349 350 237
f 350 351 237
f 351 352 237
f 353 354 237
f 354 355 237
f 355 349 237
f 352 238 237
f 245 353 237
f 352 356 238
f 356 357 238
f 357 358 238
f 358 359 238
f 359 360 238
f 360 361 238
f 361 239 238
f 361 362 239
f 362 363 239
f 364 365 239
f 366 364 239
f 363 367 239
f 367 368 239
f 368 366 239
f 365 369 239
f 369 370 239
f 370 371 239
f 371 241 239
f 372 373 241
f 373 374 241
f 374 375 241
f 375 376 241
f 376 377 241
f 377 378 241
f 378 379 241
f 380 381 241
f 381 382 241
f 382 372 241
f 379 243 241
f 371 380 241
f 379 383 243
f 383 384 243
f 384 385 243
f 385 386 243
f 386 387 243
f 387 244 243
f 387 388 244
f 388 389 244
f 389 390 244
f 390 391 244
f 391 392 244
f 392 393 244
f 393 283 244
f 252 362 361
f 253 252 361
f 360 253 361
f 279 383 379
f 280 279 379
f 378 280 379
f 266 362 252
f 291 383 279
f 394 322 395
f 322 319 395
f 319 396 395
f 397 394 395
f 396 397 395
f 320 396 319
f 398 326 394
f 326 322 394
f 397 398 394
f 320 399 396
f 399 397 396
f 324 399 320
f 246 253 360
f 359 246 360
f 266 363 362
f 274 280 378
f 377 274 378
f 291 384 383
f 265 363 266
f 290 384 291
f 400 330 398
f 330 326 398
f 397 400 398
f 324 401 399
f 401 397 399
f 328 401 324
f 345 402 297
f 402 296 297
f 314 347 315
f 403 402 345
f 346 403 345
f 314 404 347
f 405 348 347
f 404 405 347
f 247 246 359
f 358 247 359
f 265 367 363
f 275 274 377
f 376 275 377
f 290 385 384
f 264 367 265
f 289 385 290
f 406 334 400
f 334 330 400
f 397 406 400
f 328 407 401
f 407 397 401
f 332 407 328
f 248 247 358
f 357 248 358
f 264 368 367
f 276 275 376
f 375 276 376
f 289 386 385
f 263 368 264
f 288 386 289
f 408 338 406
f 338 334 406
f 397 408 406
f 332 409 407
f 409 397 407
f 336 409 332
f 410 342 408
f 342 338 408
f 397 410 408
f 336 411 409
f 411 397 409
f 340 411 336
f 356 248 357
f 263 366 368
f 277 276 375
f 374 277 375
f 288 387 386
f 356 249 248
f 262 366 263
f 287 387 288
f 412 346 410
f 346 342 410
f 397 412 410
f 340 413 411
f 413 397 411
f 344 413 340
f 352 249 356
f 287 388 387
f 250 249 352
f 351 250 352
f 262 364 366
f 278 277 374
f 373 278 374
f 287 389 388
f 261 364 262
f 286 389 287
f 414 403 412
f 403 346 412
f 397 414 412
f 344 415 413
f 415 397 413
f 348 415 344
f 251 250 351
f 350 251 351
f 261 365 364
f 281 278 373
f 372 281 373
f 286 390 389
f 260 365 261
f 285 390 286
f 416 417 414
f 417 403 414
f 397 416 414
f 348 418 415
f 418 397 415
f 417 402 403
f 405 418 348
f 419 295 296
f 420 419 296
f 402 420 296
f 306 421 314
f 421 404 314
f 422 423 416
f 423 417 416
f 397 422 416
f 418 424 397
f 425 422 397
f 426 427 397
f 427 428 397
f 428 425 397
f 429 430 397
f 430 431 397
f 431 426 397
f 432 433 397
f 433 434 397
f 434 429 397
f 435 436 397
f 436 437 397
f 437 432 397
f 424 438 397
f 438 439 397
f 439 435 397
f 405 424 418
f 417 420 402
f 423 420 417
f 404 440 405
f 440 424 405
f 421 441 404
f 441 440 404
f 254 251 350
f 349 254 350
f 260 369 365
f 282 281 372
f 382 282 372
f 285 391 390
f 259 369 260
f 284 391 285
f 425 442 422
f 442 423 422
f 440 438 424
f 442 443 423
f 443 420 423
f 441 444 440
f 444 438 440
f 255 254 349
f 355 255 349
f 259 370 369
f 445 282 382
f 381 445 382
f 284 392 391
f 258 370 259
f 445 273 282
f 283 446 284
f 446 392 284
f 428 447 425
f 447 442 425
f 444 439 438
f 447 448 442
f 448 443 442
f 441 449 444
f 449 450 444
f 450 439 444
f 427 451 428
f 451 447 428
f 450 435 439
f 451 452 447
f 452 448 447
f 449 453 450
f 453 454 450
f 454 435 450
f 455 255 355
f 354 455 355
f 456 371 370
f 258 456 370
f 380 457 381
f 458 445 381
f 457 458 381
f 459 393 392
f 446 459 392
f 455 256 255
f 257 460 258
f 460 456 258
f 458 273 445
f 283 461 446
f 461 459 446
f 426 462 427
f 462 451 427
f 454 436 435
f 462 463 451
f 463 452 451
f 453 464 454
f 464 465 454
f 465 436 454
f 431 466 426
f 466 462 426
f 465 437 436
f 466 467 462
f 467 463 462
f 464 468 465
f 468 469 465
f 469 437 465
f 430 470 431
f 470 466 431
f 469 432 437
f 470 471 466
f 471 467 466
f 468 472 469
f 472 473 469
f 473 432 469
f 353 474 354
f 475 455 354
f 474 475 354
f 476 371 456
f 460 476 456
f 380 477 457
f 478 458 457
f 477 478 457
f 479 393 459
f 461 479 459
f 475 256 455
f 257 480 460
f 480 476 460
f 478 273 458
f 283 481 461
f 481 479 461
f 482 295 419
f 420 443 419
f 443 482 419
f 306 483 421
f 483 441 421
f 483 449 441
f 429 484 430
f 484 470 430
f 473 433 432
f 484 485 470
f 485 471 470
f 472 486 473
f 486 487 473
f 487 433 473
f 434 488 429
f 488 484 429
f 487 434 433
f 488 489 484
f 489 485 484
f 486 490 487
f 490 488 487
f 488 434 487
f 490 489 488
f 353 491 474
f 492 475 474
f 491 492 474
f 493 371 476
f 480 493 476
f 380 494 477
f 495 478 477
f 494 495 477
f 496 393 479
f 481 496 479
f 492 256 475
f 257 497 480
f 497 493 480
f 495 273 478
f 283 498 481
f 498 496 481
f 353 499 491
f 500 492 491
f 499 500 491
f 501 371 493
f 497 501 493
f 380 502 494
f 503 495 494
f 502 503 494
f 504 393 496
f 498 504 496
f 500 256 492
f 257 505 497
f 505 501 497
f 503 273 495
f 283 506 498
f 506 504 498
f 353 507 499
f 507 500 499
f 508 371 501
f 505 508 501
f 380 509 502
f 510 503 502
f 509 510 502
f 511 512 504
f 512 393 504
f 506 511 504
f 513 256 500
f 507 513 500
f 257 514 505
f 514 508 505
f 510 273 503
f 283 515 506
f 515 511 506
f 516 517 507
f 353 516 507
f 517 513 507
f 518 512 511
f 515 518 511
f 519 295 482
f 443 448 482
f 448 519 482
f 306 520 483
f 520 449 483
f 520 453 449
f 516 521 517
f 522 513 517
f 521 522 517
f 523 371 508
f 514 523 508
f 380 524 509
f 525 510 509
f 524 525 509
f 526 512 518
f 515 526 518
f 522 256 513
f 257 527 514
f 527 523 514
f 525 273 510
f 283 528 515
f 528 526 515
f 516 529 521
f 530 522 521
f 529 530 521
f 531 371 523
f 527 531 523
f 380 532 524
f 533 525 524
f 532 533 524
f 534 512 526
f 528 534 526
f 530 256 522
f 257 535 527
f 535 531 527
f 533 273 525
f 283 536 528
f 536 534 528
f 516 537 529
f 538 530 529
f 537 538 529
f 539 371 531
f 535 539 531
f 380 540 532
f 541 533 532
f 540 541 532
f 542 512 534
f 536 542 534
f 538 256 530
f 257 543 535
f 543 539 535
f 541 273 533
f 283 544 536
f 544 542 536
f 516 545 537
f 546 538 537
f 545 546 537
f 545 516 539
f 516 371 539
f 543 545 539
f 380 547 540
f 548 541 540
f 547 548 540
f 547 512 542
f 544 547 542
f 257 256 538
f 546 257 538
f 257 546 543
f 546 545 543
f 283 273 541
f 548 283 541
f 283 548 544
f 548 547 544
f 380 512 547
f 549 295 519
f 448 452 519
f 452 549 519
f 306 550 520
f 550 453 520
f 550 464 453
f 551 295 549
f 452 463 549
f 463 551 549
f 306 552 550
f 552 464 550
f 552 468 464
f 553 516 353
f 245 553 353
f 554 371 516
f 555 554 516
f 553 556 516
f 556 555 516
f 554 557 371
f 557 380 371
f 558 512 380
f 557 558 380
f 559 560 512
f 558 559 512
f 560 561 512
f 561 562 512
f 562 393 512
f 562 563 393
f 564 283 393
f 563 564 393
f 565 295 551
f 463 467 551
f 467 565 551
f 306 566 552
f 566 468 552
f 566 472 468
f 256 567 245
f 567 553 245
f 257 568 256
f 568 567 256
f 269 569 257
f 569 568 257
f 292 570 269
f 570 571 269
f 571 569 269
f 295 570 292
f 273 572 272
f 572 306 272
f 283 573 273
f 573 572 273
f 564 573 283
f 574 295 565
f 467 471 565
f 471 574 565
f 306 575 566
f 575 472 566
f 575 486 472
f 576 295 574
f 471 485 574
f 485 576 574
f 306 577 575
f 577 486 575
f 577 490 486
f 578 295 576
f 485 489 576
f 489 578 576
f 306 578 577
f 578 490 577
f 578 489 490
f 306 295 578
f 557 554 579
f 580 557 579
f 581 582 579
f 554 581 579
f 583 580 579
f 582 583 579
f 558 557 580
f 559 558 580
f 583 559 580
f 555 581 554
f 583 560 559
f 572 573 570
f 573 571 570
f 295 306 570
f 306 572 570
f 582 555 584
f 585 586 584
f 555 585 584
f 586 582 584
f 581 555 582
f 587 583 582
f 586 587 582
f 588 560 583
f 587 588 583
f 587 561 588
f 561 560 588
f 556 585 555
f 589 562 561
f 587 589 561
f 585 590 586
f 590 591 586
f 591 592 586
f 592 587 586
f 593 589 587
f 594 593 587
f 592 595 587
f 595 594 587
f 591 596 592
f 596 597 592
f 597 595 592
f 597 598 595
f 598 594 595
f 590 594 591
f 599 596 591
f 594 599 591
f 590 593 594
f 598 599 594
f 556 590 585
f 556 600 590
f 600 593 590
f 600 601 593
f 601 589 593
f 601 562 589
f 568 556 553
f 567 568 553
f 568 600 556
f 568 569 600
f 569 571 600
f 571 601 600
f 571 573 601
f 573 562 601
f 573 564 562
f 564 563 562
f 599 597 596
f 599 598 597
